# xmcd CD database file
#
# Track frame offsets:
#	150
#	10581
#	27668
#	44826
#	56028
#	65359
#	82208
#	93564
#	105260
#	115406
#	127750
#	142038
#	150541
#	163073
#	175329
#	188238
#	198644
#	210538
#	222928
#	236980
#
# Disc length: 3380 seconds
#
# Revision: 0
# Processed by: cddbd v1.4PL0 Copyright (c) Steve Scherf et al.
# Submitted via: CDex 1.51
#
DISCID=290d3214
DTITLE=Peter Kern - Young and Restless
DYEAR=1900
DGENRE=Blues
TTITLE0=Only two things
TTITLE1=Young and restless
TTITLE2=Goin' down slow
TTITLE3=One day you'r son's gonna be a man
TTITLE4=Send me a friend
TTITLE5=Too much talkin'
TTITLE6=Chump man Blues
TTITLE7=I'm gonny train my baby
TTITLE8='Taint nobodys business
TTITLE9=I have to stop
TTITLE10=Tribute to Elmore James
TTITLE11=Sweetest sister
TTITLE12=I got to change my way
TTITLE13=When i met Louisiana Red
TTITLE14=Funny feeling Blues
TTITLE15=Shake that thing
TTITLE16=Guitar rag
TTITLE17=Nehi mama Blues
TTITLE18=I'm wild about you baby
TTITLE19=You better help yourself
EXTD=
EXTT0=
EXTT1=
EXTT2=
EXTT3=
EXTT4=
EXTT5=
EXTT6=
EXTT7=
EXTT8=
EXTT9=
EXTT10=
EXTT11=
EXTT12=
EXTT13=
EXTT14=
EXTT15=
EXTT16=
EXTT17=
EXTT18=
EXTT19=
PLAYORDER=
